<mxfile host="app.diagrams.net" modified="2022-09-15T12:52:22.922Z" agent="5.0 (Windows NT 10.0; Win64; x64) AppleWebKit/537.36 (KHTML, like Gecko) Chrome/100.0.4896.75 Safari/537.36" etag="b_Vl8Jfe1M-j-_f-S3bd" version="17.1.3" type="github">
  <diagram name="Page-1" id="13e1069c-82ec-6db2-03f1-153e76fe0fe0">
    <mxGraphModel dx="976" dy="587" grid="0" gridSize="10" guides="1" tooltips="1" connect="1" arrows="1" fold="1" page="1" pageScale="1" pageWidth="1100" pageHeight="850" background="#F1FAEE" math="0" shadow="0">
      <root>
        <mxCell id="0" />
        <mxCell id="1" parent="0" />
        <mxCell id="7baba1c4bc27f4b0-2" value="创维Livetv" style="shape=umlLifeline;perimeter=lifelinePerimeter;whiteSpace=wrap;html=1;container=1;collapsible=0;recursiveResize=0;outlineConnect=0;rounded=1;shadow=0;comic=0;labelBackgroundColor=none;strokeWidth=1;fontFamily=Verdana;fontSize=15;align=center;fillColor=#A8DADC;strokeColor=#457B9D;fontColor=#1D3557;" parent="1" vertex="1">
          <mxGeometry x="240" y="80" width="100" height="580" as="geometry" />
        </mxCell>
        <mxCell id="7baba1c4bc27f4b0-10" value="" style="html=1;points=[];perimeter=orthogonalPerimeter;rounded=0;shadow=0;comic=0;labelBackgroundColor=none;strokeWidth=1;fontFamily=Verdana;fontSize=15;align=center;fillColor=#A8DADC;strokeColor=#457B9D;fontColor=#1D3557;" parent="7baba1c4bc27f4b0-2" vertex="1">
          <mxGeometry x="45" y="100" width="15" height="50" as="geometry" />
        </mxCell>
        <mxCell id="7baba1c4bc27f4b0-19" value="" style="html=1;points=[];perimeter=orthogonalPerimeter;rounded=0;shadow=0;comic=0;labelBackgroundColor=none;strokeWidth=1;fontFamily=Verdana;fontSize=15;align=center;fillColor=#A8DADC;strokeColor=#457B9D;fontColor=#1D3557;" parent="7baba1c4bc27f4b0-2" vertex="1">
          <mxGeometry x="42.5" y="210" width="15" height="50" as="geometry" />
        </mxCell>
        <mxCell id="H1Ya_Y3PmwETlR8At3aT-2" value="" style="html=1;points=[];perimeter=orthogonalPerimeter;rounded=0;shadow=0;comic=0;labelBackgroundColor=none;strokeWidth=1;fontFamily=Verdana;fontSize=15;align=center;fillColor=#A8DADC;strokeColor=#457B9D;fontColor=#1D3557;" parent="7baba1c4bc27f4b0-2" vertex="1">
          <mxGeometry x="42.5" y="300" width="15" height="50" as="geometry" />
        </mxCell>
        <mxCell id="7baba1c4bc27f4b0-3" value="腾龙LIveTV" style="shape=umlLifeline;perimeter=lifelinePerimeter;whiteSpace=wrap;html=1;container=1;collapsible=0;recursiveResize=0;outlineConnect=0;rounded=1;shadow=0;comic=0;labelBackgroundColor=none;strokeWidth=1;fontFamily=Verdana;fontSize=15;align=center;fillColor=#A8DADC;strokeColor=#457B9D;fontColor=#1D3557;" parent="1" vertex="1">
          <mxGeometry x="400" y="80" width="100" height="580" as="geometry" />
        </mxCell>
        <mxCell id="7baba1c4bc27f4b0-13" value="" style="html=1;points=[];perimeter=orthogonalPerimeter;rounded=0;shadow=0;comic=0;labelBackgroundColor=none;strokeWidth=1;fontFamily=Verdana;fontSize=15;align=center;fillColor=#A8DADC;strokeColor=#457B9D;fontColor=#1D3557;" parent="7baba1c4bc27f4b0-3" vertex="1">
          <mxGeometry x="45" y="150" width="15" height="60" as="geometry" />
        </mxCell>
        <mxCell id="H1Ya_Y3PmwETlR8At3aT-4" value="" style="html=1;points=[];perimeter=orthogonalPerimeter;rounded=0;shadow=0;comic=0;labelBackgroundColor=none;strokeWidth=1;fontFamily=Verdana;fontSize=15;align=center;fillColor=#A8DADC;strokeColor=#457B9D;fontColor=#1D3557;" parent="7baba1c4bc27f4b0-3" vertex="1">
          <mxGeometry x="42.5" y="340" width="15" height="50" as="geometry" />
        </mxCell>
        <mxCell id="7baba1c4bc27f4b0-5" value="google assistant" style="shape=umlLifeline;perimeter=lifelinePerimeter;whiteSpace=wrap;html=1;container=1;collapsible=0;recursiveResize=0;outlineConnect=0;rounded=1;shadow=0;comic=0;labelBackgroundColor=none;strokeWidth=1;fontFamily=Verdana;fontSize=15;align=center;fillColor=#A8DADC;strokeColor=#457B9D;fontColor=#1D3557;" parent="1" vertex="1">
          <mxGeometry x="680" y="80" width="100" height="580" as="geometry" />
        </mxCell>
        <mxCell id="H1Ya_Y3PmwETlR8At3aT-6" value="" style="html=1;points=[];perimeter=orthogonalPerimeter;rounded=0;shadow=0;comic=0;labelBackgroundColor=none;strokeWidth=1;fontFamily=Verdana;fontSize=15;align=center;fillColor=#A8DADC;strokeColor=#457B9D;fontColor=#1D3557;" parent="7baba1c4bc27f4b0-5" vertex="1">
          <mxGeometry x="42.5" y="100" width="15" height="80" as="geometry" />
        </mxCell>
        <mxCell id="H1Ya_Y3PmwETlR8At3aT-8" value="&lt;div style=&quot;font-size: 15px;&quot;&gt;查询ContentProvider&lt;/div&gt;" style="html=1;verticalAlign=bottom;endArrow=block;labelBackgroundColor=none;fontFamily=Verdana;fontSize=15;edgeStyle=elbowEdgeStyle;exitX=1.033;exitY=0.063;exitDx=0;exitDy=0;exitPerimeter=0;entryX=1.167;entryY=0.575;entryDx=0;entryDy=0;entryPerimeter=0;strokeColor=#457B9D;fontColor=#1D3557;" parent="7baba1c4bc27f4b0-5" source="H1Ya_Y3PmwETlR8At3aT-6" target="H1Ya_Y3PmwETlR8At3aT-6" edge="1">
          <mxGeometry x="-0.0582" y="40" relative="1" as="geometry">
            <mxPoint x="-510" y="110" as="sourcePoint" />
            <mxPoint x="-385" y="110" as="targetPoint" />
            <Array as="points">
              <mxPoint x="90" y="120" />
            </Array>
            <mxPoint x="14" y="-30" as="offset" />
          </mxGeometry>
        </mxCell>
        <mxCell id="7baba1c4bc27f4b0-6" value="创维Livetv" style="shape=umlLifeline;perimeter=lifelinePerimeter;whiteSpace=wrap;html=1;container=1;collapsible=0;recursiveResize=0;outlineConnect=0;rounded=1;shadow=0;comic=0;labelBackgroundColor=none;strokeWidth=1;fontFamily=Verdana;fontSize=15;align=center;fillColor=#A8DADC;strokeColor=#457B9D;fontColor=#1D3557;" parent="1" vertex="1">
          <mxGeometry x="820" y="80" width="100" height="580" as="geometry" />
        </mxCell>
        <mxCell id="H1Ya_Y3PmwETlR8At3aT-7" value="" style="html=1;points=[];perimeter=orthogonalPerimeter;rounded=0;shadow=0;comic=0;labelBackgroundColor=none;strokeWidth=1;fontFamily=Verdana;fontSize=15;align=center;fillColor=#A8DADC;strokeColor=#457B9D;fontColor=#1D3557;" parent="7baba1c4bc27f4b0-6" vertex="1">
          <mxGeometry x="42.5" y="170" width="15" height="50" as="geometry" />
        </mxCell>
        <mxCell id="7baba1c4bc27f4b0-7" value="腾龙LIveTV" style="shape=umlLifeline;perimeter=lifelinePerimeter;whiteSpace=wrap;html=1;container=1;collapsible=0;recursiveResize=0;outlineConnect=0;rounded=1;shadow=0;comic=0;labelBackgroundColor=none;strokeWidth=1;fontFamily=Verdana;fontSize=15;align=center;fillColor=#A8DADC;strokeColor=#457B9D;fontColor=#1D3557;" parent="1" vertex="1">
          <mxGeometry x="960" y="80" width="100" height="580" as="geometry" />
        </mxCell>
        <mxCell id="H1Ya_Y3PmwETlR8At3aT-9" value="" style="html=1;points=[];perimeter=orthogonalPerimeter;rounded=0;shadow=0;comic=0;labelBackgroundColor=none;strokeWidth=1;fontFamily=Verdana;fontSize=15;align=center;fillColor=#A8DADC;strokeColor=#457B9D;fontColor=#1D3557;" parent="7baba1c4bc27f4b0-7" vertex="1">
          <mxGeometry x="42.5" y="210" width="15" height="50" as="geometry" />
        </mxCell>
        <mxCell id="7baba1c4bc27f4b0-8" value="google assistant" style="shape=umlLifeline;perimeter=lifelinePerimeter;whiteSpace=wrap;html=1;container=1;collapsible=0;recursiveResize=0;outlineConnect=0;rounded=1;shadow=0;comic=0;labelBackgroundColor=none;strokeWidth=1;fontFamily=Verdana;fontSize=15;align=center;fillColor=#A8DADC;strokeColor=#457B9D;fontColor=#1D3557;" parent="1" vertex="1">
          <mxGeometry x="100" y="80" width="100" height="580" as="geometry" />
        </mxCell>
        <mxCell id="7baba1c4bc27f4b0-9" value="" style="html=1;points=[];perimeter=orthogonalPerimeter;rounded=0;shadow=0;comic=0;labelBackgroundColor=none;strokeWidth=1;fontFamily=Verdana;fontSize=15;align=center;fillColor=#A8DADC;strokeColor=#457B9D;fontColor=#1D3557;" parent="7baba1c4bc27f4b0-8" vertex="1">
          <mxGeometry x="45" y="100" width="15" height="50" as="geometry" />
        </mxCell>
        <mxCell id="7baba1c4bc27f4b0-28" value="" style="html=1;points=[];perimeter=orthogonalPerimeter;rounded=0;shadow=0;comic=0;labelBackgroundColor=none;strokeWidth=1;fontFamily=Verdana;fontSize=15;align=center;fillColor=#A8DADC;strokeColor=#457B9D;fontColor=#1D3557;" parent="7baba1c4bc27f4b0-8" vertex="1">
          <mxGeometry x="45" y="250" width="15" height="50" as="geometry" />
        </mxCell>
        <mxCell id="7baba1c4bc27f4b0-17" value="AIDL返回频道id" style="html=1;verticalAlign=bottom;endArrow=block;labelBackgroundColor=none;fontFamily=Verdana;fontSize=15;elbow=vertical;exitX=0;exitY=0.964;exitDx=0;exitDy=0;exitPerimeter=0;strokeColor=#457B9D;fontColor=#1D3557;" parent="1" source="7baba1c4bc27f4b0-13" target="7baba1c4bc27f4b0-19" edge="1">
          <mxGeometry x="-0.0354" relative="1" as="geometry">
            <mxPoint x="510" y="220" as="sourcePoint" />
            <mxPoint x="300" y="306" as="targetPoint" />
            <mxPoint as="offset" />
          </mxGeometry>
        </mxCell>
        <mxCell id="7baba1c4bc27f4b0-29" value="返回查询结果" style="html=1;verticalAlign=bottom;endArrow=block;labelBackgroundColor=none;fontFamily=Verdana;fontSize=15;edgeStyle=elbowEdgeStyle;elbow=vertical;strokeColor=#457B9D;fontColor=#1D3557;" parent="1" source="7baba1c4bc27f4b0-19" target="7baba1c4bc27f4b0-28" edge="1">
          <mxGeometry relative="1" as="geometry">
            <mxPoint x="600" y="550" as="sourcePoint" />
            <mxPoint x="160" y="340" as="targetPoint" />
          </mxGeometry>
        </mxCell>
        <mxCell id="7baba1c4bc27f4b0-11" value="&lt;div style=&quot;font-size: 15px;&quot;&gt;查询ContentProvider&lt;/div&gt;" style="html=1;verticalAlign=bottom;endArrow=block;entryX=0;entryY=0;labelBackgroundColor=none;fontFamily=Verdana;fontSize=15;edgeStyle=elbowEdgeStyle;elbow=vertical;strokeColor=#457B9D;fontColor=#1D3557;" parent="1" source="7baba1c4bc27f4b0-9" target="7baba1c4bc27f4b0-10" edge="1">
          <mxGeometry relative="1" as="geometry">
            <mxPoint x="220" y="190" as="sourcePoint" />
          </mxGeometry>
        </mxCell>
        <mxCell id="7baba1c4bc27f4b0-14" value="通过AIDL传递关键字" style="html=1;verticalAlign=bottom;endArrow=block;entryX=0;entryY=0;labelBackgroundColor=none;fontFamily=Verdana;fontSize=15;edgeStyle=elbowEdgeStyle;elbow=vertical;strokeColor=#457B9D;fontColor=#1D3557;" parent="1" source="7baba1c4bc27f4b0-10" target="7baba1c4bc27f4b0-13" edge="1">
          <mxGeometry x="-0.0345" relative="1" as="geometry">
            <mxPoint x="370" y="200" as="sourcePoint" />
            <Array as="points">
              <mxPoint x="310" y="230" />
            </Array>
            <mxPoint as="offset" />
          </mxGeometry>
        </mxCell>
        <mxCell id="H1Ya_Y3PmwETlR8At3aT-3" value="拉起activity" style="html=1;verticalAlign=bottom;endArrow=block;entryX=0;entryY=0;labelBackgroundColor=none;fontFamily=Verdana;fontSize=15;edgeStyle=elbowEdgeStyle;elbow=vertical;strokeColor=#457B9D;fontColor=#1D3557;" parent="1" edge="1">
          <mxGeometry relative="1" as="geometry">
            <mxPoint x="160" y="380" as="sourcePoint" />
            <mxPoint x="285" y="380" as="targetPoint" />
            <mxPoint as="offset" />
          </mxGeometry>
        </mxCell>
        <mxCell id="H1Ya_Y3PmwETlR8At3aT-5" value="&lt;div&gt;拉起activity&lt;/div&gt;并传递频道id" style="html=1;verticalAlign=bottom;endArrow=block;labelBackgroundColor=none;fontFamily=Verdana;fontSize=15;entryX=0.033;entryY=0.14;entryDx=0;entryDy=0;entryPerimeter=0;exitX=1.1;exitY=0.94;exitDx=0;exitDy=0;exitPerimeter=0;elbow=vertical;strokeColor=#457B9D;fontColor=#1D3557;" parent="1" source="H1Ya_Y3PmwETlR8At3aT-2" target="H1Ya_Y3PmwETlR8At3aT-4" edge="1">
          <mxGeometry relative="1" as="geometry">
            <mxPoint x="170" y="390" as="sourcePoint" />
            <mxPoint x="295" y="390" as="targetPoint" />
            <mxPoint as="offset" />
          </mxGeometry>
        </mxCell>
        <mxCell id="H1Ya_Y3PmwETlR8At3aT-10" value="拉起activity" style="html=1;verticalAlign=bottom;endArrow=block;entryX=-0.033;entryY=0.12;labelBackgroundColor=none;fontFamily=Verdana;fontSize=15;edgeStyle=elbowEdgeStyle;elbow=vertical;entryDx=0;entryDy=0;entryPerimeter=0;strokeColor=#457B9D;fontColor=#1D3557;" parent="1" source="H1Ya_Y3PmwETlR8At3aT-6" target="H1Ya_Y3PmwETlR8At3aT-7" edge="1">
          <mxGeometry relative="1" as="geometry">
            <mxPoint x="730" y="250" as="sourcePoint" />
            <mxPoint x="295" y="190" as="targetPoint" />
          </mxGeometry>
        </mxCell>
        <mxCell id="H1Ya_Y3PmwETlR8At3aT-11" value="&lt;div style=&quot;font-size: 15px;&quot;&gt;拉起activity&lt;/div&gt;&lt;div style=&quot;font-size: 15px;&quot;&gt;并传递关键字&lt;/div&gt;" style="html=1;verticalAlign=bottom;endArrow=block;labelBackgroundColor=none;fontFamily=Verdana;fontSize=15;edgeStyle=elbowEdgeStyle;elbow=vertical;strokeColor=#457B9D;fontColor=#1D3557;" parent="1" source="H1Ya_Y3PmwETlR8At3aT-7" target="H1Ya_Y3PmwETlR8At3aT-9" edge="1">
          <mxGeometry relative="1" as="geometry">
            <mxPoint x="747.5" y="266" as="sourcePoint" />
            <mxPoint x="800" y="390" as="targetPoint" />
          </mxGeometry>
        </mxCell>
        <mxCell id="H1Ya_Y3PmwETlR8At3aT-13" value="场景1" style="shape=umlFrame;whiteSpace=wrap;html=1;rounded=0;sketch=0;fontColor=#1D3557;strokeColor=#457B9D;fillColor=#A8DADC;" parent="1" vertex="1">
          <mxGeometry x="64" y="34" width="464" height="458" as="geometry" />
        </mxCell>
        <mxCell id="H1Ya_Y3PmwETlR8At3aT-14" value="场景2" style="shape=umlFrame;whiteSpace=wrap;html=1;rounded=0;sketch=0;fontColor=#1D3557;strokeColor=#457B9D;fillColor=#A8DADC;" parent="1" vertex="1">
          <mxGeometry x="625" y="34" width="459" height="341" as="geometry" />
        </mxCell>
      </root>
    </mxGraphModel>
  </diagram>
</mxfile>
